<?xml version="1.0" standalone="no"?>
<!DOCTYPE svg PUBLIC "-//W3C//DTD SVG 20010904//EN"
 "http://www.w3.org/TR/2001/REC-SVG-20010904/DTD/svg10.dtd">
<svg version="1.0" xmlns="http://www.w3.org/2000/svg"
 width="630.000000pt" height="80.000000pt" viewBox="0 0 630.000000 80.000000"
 preserveAspectRatio="xMidYMid meet">

<g transform="translate(0.000000,80.000000) scale(0.100000,-0.100000)"
fill="#000000" stroke="none">
<path d="M1990 699 c0 -54 -2 -60 -17 -54 -62 27 -123 12 -153 -37 -37 -61
-20 -176 31 -212 30 -20 88 -21 117 0 12 8 22 10 22 5 0 -6 22 -11 50 -11 l50
0 0 185 0 185 -50 0 -50 0 0 -61z m-16 -131 c33 -47 4 -128 -41 -114 -48 15
-38 136 12 136 8 0 21 -10 29 -22z"/>
<path d="M145 647 c-107 -59 -116 -256 -16 -340 54 -45 141 -48 195 -6 l26 20
0 -50 c0 -32 -6 -55 -16 -65 -22 -22 -77 -20 -98 3 -17 18 -27 21 -125 36
l-44 7 6 -41 c11 -88 58 -121 182 -129 111 -6 184 15 222 65 l28 36 3 239 3
238 -70 0 c-69 0 -71 -1 -71 -25 0 -29 -12 -32 -31 -8 -38 45 -131 55 -194 20z
m175 -97 c42 -23 46 -127 6 -155 -55 -39 -106 -2 -106 75 0 74 44 110 100 80z"/>
<path d="M682 644 c-12 -8 -22 -10 -22 -5 0 6 -22 11 -50 11 l-50 0 0 -130 0
-130 55 0 55 0 0 78 c0 66 3 82 20 97 10 9 26 15 35 11 11 -4 21 5 32 30 15
31 15 36 3 44 -22 14 -53 12 -78 -6z"/>
<path d="M849 640 c-64 -34 -89 -132 -50 -196 35 -58 131 -81 206 -50 100 42
100 210 0 252 -47 19 -113 17 -156 -6z m115 -72 c33 -46 12 -118 -34 -118 -24
0 -50 37 -50 70 0 33 26 70 50 70 10 0 26 -10 34 -22z"/>
<path d="M1596 639 c-21 -17 -26 -18 -26 -5 0 12 -11 16 -50 16 l-50 0 0 -130
0 -130 49 0 49 0 4 80 c4 89 23 124 56 104 14 -9 18 -29 20 -98 l3 -86 49 0
50 0 0 100 c0 105 -13 151 -45 164 -33 12 -83 6 -109 -15z"/>
<path d="M1130 550 c0 -105 13 -151 45 -164 28 -10 75 -7 105 9 18 9 31 11 35
5 3 -6 26 -10 51 -10 l44 0 0 130 0 130 -50 0 -50 0 0 -76 c0 -83 -11 -114
-40 -114 -29 0 -40 31 -40 114 l0 76 -50 0 -50 0 0 -100z"/>
<path d="M2440 455 c19 -19 36 -35 39 -35 3 0 -10 16 -29 35 -19 19 -36 35
-39 35 -3 0 10 -16 29 -35z"/>
<path d="M3651 473 c0 -12 -7 -24 -13 -26 -10 -4 -10 -7 -1 -14 6 -5 13 -33
16 -63 l3 -55 2 58 c2 43 6 57 17 57 8 0 15 5 15 10 0 6 -6 10 -14 10 -8 0
-17 10 -19 23 -4 22 -4 22 -6 0z"/>
<path d="M3723 405 c0 -49 2 -70 4 -45 5 53 17 70 49 70 25 0 30 -12 37 -80 3
-26 4 -21 5 17 3 69 -26 100 -68 73 -12 -7 -16 -3 -21 23 -4 18 -6 -8 -6 -58z"/>
<path d="M4080 474 c0 -8 5 -12 10 -9 6 4 8 11 5 16 -9 14 -15 11 -15 -7z"/>
<path d="M4390 459 c0 -26 -3 -30 -17 -24 -42 17 -53 16 -77 -9 -32 -31 -33
-47 -2 -83 23 -26 26 -27 57 -16 26 10 35 10 41 0 4 -6 8 27 8 76 0 48 -2 87
-5 87 -3 0 -5 -14 -5 -31z m-16 -45 c9 -8 16 -22 16 -29 0 -21 -29 -45 -55
-45 -26 0 -55 24 -55 45 0 21 29 45 55 45 13 0 31 -7 39 -16z"/>
<path d="M4701 473 c-1 -13 -7 -23 -16 -23 -8 0 -15 -4 -15 -10 0 -5 7 -10 15
-10 11 0 15 -14 17 -57 l2 -58 3 55 c3 30 10 58 16 62 9 6 9 10 1 16 -7 4 -14
16 -17 27 -4 18 -5 18 -6 -2z"/>
<path d="M5522 405 c-1 -51 2 -84 7 -77 6 10 13 11 34 1 52 -23 104 38 73 86
-19 29 -49 39 -75 26 -28 -15 -29 -15 -34 22 -2 17 -4 -8 -5 -58z m102 9 c9
-8 16 -22 16 -29 0 -21 -29 -45 -55 -45 -26 0 -55 24 -55 45 0 21 29 45 55 45
13 0 31 -7 39 -16z"/>
<path d="M5750 474 c0 -8 5 -12 10 -9 6 4 8 11 5 16 -9 14 -15 11 -15 -7z"/>
<path d="M5910 460 c0 -34 0 -34 -34 -19 -63 29 -109 -69 -50 -108 21 -13 32
-15 55 -6 20 8 29 8 33 -1 2 -6 5 28 5 77 1 48 -1 87 -4 87 -3 0 -5 -13 -5
-30z m-12 -42 c7 -7 12 -21 12 -33 0 -28 -19 -45 -50 -45 -31 0 -50 17 -50 45
0 28 19 45 50 45 14 0 31 -5 38 -12z"/>
<path d="M2852 434 c-33 -23 -30 -78 4 -101 21 -13 32 -15 55 -6 20 8 29 8 33
-1 2 -6 5 21 5 59 0 39 -3 65 -7 58 -5 -8 -13 -9 -22 -3 -22 14 -43 12 -68 -6z
m76 -16 c7 -7 12 -21 12 -33 0 -28 -19 -45 -50 -45 -31 0 -50 17 -50 45 0 28
19 45 50 45 14 0 31 -5 38 -12z"/>
<path d="M3025 438 c-26 -15 -35 -28 -35 -54 0 -48 66 -80 105 -50 19 14 18
15 -16 9 -46 -7 -79 10 -79 42 0 32 33 49 79 42 33 -6 35 -5 17 8 -23 18 -44
18 -71 3z"/>
<path d="M3141 385 c2 -63 2 -66 8 -25 8 53 17 70 37 70 8 0 14 5 14 10 0 12
-10 13 -30 0 -9 -6 -17 -5 -22 3 -4 7 -7 -19 -7 -58z"/>
<path d="M3240 430 c-40 -40 -13 -110 43 -110 22 0 67 43 67 65 0 23 -45 65
-70 65 -11 0 -29 -9 -40 -20z m82 -17 c10 -9 18 -22 18 -29 0 -21 -30 -44 -59
-44 -32 0 -51 16 -51 45 0 44 56 61 92 28z"/>
<path d="M3380 430 c-11 -20 -7 -25 34 -54 24 -17 13 -36 -22 -37 -26 0 -27
-1 -5 -11 17 -8 26 -8 38 2 23 19 18 36 -15 60 -32 23 -32 40 1 40 11 0 17 5
14 10 -10 16 -34 11 -45 -10z"/>
<path d="M3483 443 c-22 -8 -14 -42 12 -59 33 -22 32 -44 -2 -44 -20 0 -24 -3
-16 -11 6 -6 20 -8 32 -4 30 9 28 49 -4 63 -34 16 -33 42 3 42 21 0 24 2 12
10 -16 11 -19 11 -37 3z"/>
<path d="M3875 425 c-14 -13 -25 -31 -25 -40 0 -22 45 -65 68 -65 10 0 27 6
38 14 17 13 15 14 -22 9 -31 -4 -45 -1 -59 13 -18 19 -17 19 43 22 68 3 78 16
42 52 -27 27 -56 25 -85 -5z m85 -10 c11 -13 6 -15 -39 -15 -28 0 -51 4 -51 9
0 23 72 28 90 6z"/>
<path d="M4083 385 c0 -38 2 -53 4 -32 2 20 2 52 0 70 -2 17 -4 1 -4 -38z"/>
<path d="M4131 385 c2 -67 2 -68 8 -22 4 27 14 53 22 58 20 12 43 11 57 -3 8
-8 12 -8 12 -1 0 6 -7 16 -15 23 -12 10 -21 10 -42 1 -21 -10 -28 -9 -34 1 -5
7 -8 -17 -8 -57z"/>
<path d="M4442 404 c-2 -38 3 -55 16 -67 44 -40 83 -8 80 66 l-1 52 -6 -55
c-5 -50 -8 -55 -32 -58 -34 -4 -47 13 -52 68 l-4 45 -1 -51z"/>
<path d="M4592 438 c-19 -19 -14 -35 18 -58 17 -12 30 -16 30 -10 0 6 -11 16
-25 22 -34 15 -32 38 3 38 21 0 24 2 12 10 -19 13 -24 12 -38 -2z"/>
<path d="M4751 385 c2 -63 2 -66 8 -25 8 53 17 70 37 70 8 0 14 5 14 10 0 12
-10 13 -30 0 -9 -6 -17 -5 -22 3 -4 7 -7 -19 -7 -58z"/>
<path d="M4831 430 c14 -31 19 -36 19 -24 0 6 -7 19 -16 30 -14 18 -14 18 -3
-6z"/>
<path d="M4916 435 c-9 -26 -7 -32 5 -12 6 10 9 21 6 23 -2 3 -7 -2 -11 -11z"/>
<path d="M5166 435 c-8 -23 -8 -27 3 -20 5 3 13 -4 16 -16 4 -11 9 -19 11 -16
2 2 -2 19 -9 37 -11 25 -15 29 -21 15z"/>
<path d="M5255 439 c-4 -6 -5 -12 -2 -15 2 -3 7 2 10 11 7 17 1 20 -8 4z"/>
<path d="M5310 430 c-44 -44 -7 -118 53 -106 49 10 55 25 8 19 -39 -5 -71 7
-71 28 0 5 27 9 60 9 33 0 60 4 60 10 0 6 -27 10 -61 10 -54 0 -60 2 -49 15
13 16 69 21 86 8 5 -5 1 0 -9 10 -25 23 -52 22 -77 -3z"/>
<path d="M5671 385 c2 -63 2 -66 8 -25 8 53 17 70 37 70 8 0 14 5 14 10 0 12
-10 13 -30 0 -9 -6 -17 -5 -22 3 -4 7 -7 -19 -7 -58z"/>
<path d="M5753 385 c0 -38 2 -53 4 -32 2 20 2 52 0 70 -2 17 -4 1 -4 -38z"/>
<path d="M5980 430 c-42 -42 -7 -119 48 -105 15 3 35 7 45 8 14 1 17 11 17 62
0 37 -4 55 -9 46 -6 -10 -13 -11 -29 -2 -30 16 -49 14 -72 -9z m84 -16 c31
-31 6 -74 -43 -74 -32 0 -51 16 -51 45 0 12 5 26 12 33 17 17 64 15 82 -4z"/>
<path d="M6140 430 c-44 -44 -7 -118 53 -106 49 10 55 25 8 19 -39 -5 -71 7
-71 28 0 5 27 9 60 9 33 0 60 4 60 10 0 6 -27 10 -61 10 -54 0 -60 2 -49 15
13 16 69 21 86 8 5 -5 1 0 -9 10 -25 23 -52 22 -77 -3z"/>
<path d="M5096 410 c3 -14 11 -32 16 -40 6 -10 7 -7 2 10 -3 14 -11 32 -16 40
-6 10 -7 7 -2 -10z"/>
<path d="M5231 378 c-9 -26 -14 -30 -21 -18 -11 18 -12 3 -1 -24 6 -16 10 -12
25 24 9 23 15 44 13 47 -3 2 -10 -11 -16 -29z"/>
<path d="M4233 360 c0 -25 2 -35 4 -22 2 12 2 32 0 45 -2 12 -4 2 -4 -23z"/>
<path d="M4891 373 l-13 -28 -15 25 c-8 15 -11 17 -7 5 9 -25 10 -64 1 -90 -4
-11 6 9 23 44 17 35 29 66 27 68 -2 1 -9 -9 -16 -24z"/>
<path d="M5133 354 c-15 -16 -16 -24 -4 -24 8 0 24 30 19 35 -2 2 -9 -3 -15
-11z"/>
<path d="M580 345 c0 -2 17 -16 37 -30 34 -22 48 -25 130 -25 55 0 93 -4 93
-10 0 -6 -36 -10 -87 -10 l-88 0 27 -27 c22 -22 39 -27 88 -31 70 -5 80 -20
16 -24 l-44 -3 35 -40 34 -40 520 -3 519 -3 30 33 c16 18 30 36 30 40 0 3 -18
9 -40 13 -59 10 -48 25 18 25 49 0 62 4 81 24 l22 23 -38 7 c-21 3 -57 6 -80
6 -24 0 -43 5 -43 10 0 6 39 10 98 10 96 0 99 1 127 30 l29 30 -757 0 c-416 0
-757 -2 -757 -5z m402 -115 c-4 -46 -4 -46 -40 -47 -40 -1 -72 20 -72 48 0 30
27 47 72 47 l43 -1 -3 -47z m262 34 c30 -29 20 -44 -31 -44 -39 -1 -44 -3 -30
-11 10 -6 29 -8 42 -5 13 3 26 2 30 -4 9 -14 -44 -24 -74 -14 -33 12 -42 61
-15 81 24 18 59 16 78 -3z m246 6 c0 -4 -9 -10 -20 -13 -15 -4 -20 -14 -20
-41 0 -25 -4 -36 -15 -36 -11 0 -15 12 -15 49 l0 49 35 0 c19 0 35 -4 35 -8z
m241 0 c40 -22 13 -90 -37 -90 -24 0 -64 31 -64 50 0 18 39 50 61 50 11 0 29
-5 40 -10z"/>
<path d="M904 245 c-8 -21 2 -45 19 -45 20 0 40 27 33 45 -7 19 -45 20 -52 0z"/>
<path d="M1185 250 c-4 -6 5 -10 20 -10 15 0 24 4 20 10 -3 6 -12 10 -20 10
-8 0 -17 -4 -20 -10z"/>
<path d="M1670 245 c-10 -12 -10 -18 0 -30 17 -20 37 -19 49 3 18 34 -24 57
-49 27z"/>
<path d="M2434 318 l-29 -33 33 29 c30 28 37 36 29 36 -2 0 -16 -15 -33 -32z"/>
<path d="M4605 341 c-20 -4 -26 -9 -17 -14 14 -10 52 0 52 14 0 5 -1 8 -2 8
-2 -1 -16 -4 -33 -8z"/>
<path d="M4970 335 c0 -8 5 -15 10 -15 6 0 10 7 10 15 0 8 -4 15 -10 15 -5 0
-10 -7 -10 -15z"/>
<path d="M6067 305 c-7 -18 -57 -20 -90 -4 -21 10 -21 9 2 -10 13 -12 31 -21
41 -21 21 0 68 35 59 45 -4 3 -9 -1 -12 -10z"/>
</g>
</svg>
